<mxfile host="app.diagrams.net" agent="Mozilla/5.0 (Macintosh; Intel Mac OS X 10_15_7) AppleWebKit/537.36 (KHTML, like Gecko) Chrome/138.0.0.0 Safari/537.36" version="27.1.6">
  <diagram name="Page-1" id="qUtHld1DDseX-BlpqWd2">
    <mxGraphModel dx="1386" dy="825" grid="1" gridSize="10" guides="1" tooltips="1" connect="1" arrows="1" fold="1" page="1" pageScale="1" pageWidth="827" pageHeight="1169" math="0" shadow="0">
      <root>
        <mxCell id="0" />
        <mxCell id="1" parent="0" />
        <mxCell id="3cDIzE8Vni4yqQU2_hdb-1" value="" style="rounded=1;arcSize=10;dashed=0;fillColor=none;gradientColor=none;strokeWidth=2;" vertex="1" parent="1">
          <mxGeometry x="260" y="156" width="780" height="524" as="geometry" />
        </mxCell>
        <mxCell id="3cDIzE8Vni4yqQU2_hdb-2" value="" style="dashed=0;html=1;shape=mxgraph.aws3.virtual_private_cloud;fillColor=#F58536;gradientColor=none;dashed=0;" vertex="1" parent="1">
          <mxGeometry x="280" y="130" width="52" height="36" as="geometry" />
        </mxCell>
        <mxCell id="3cDIzE8Vni4yqQU2_hdb-3" value="" style="rounded=1;arcSize=10;dashed=1;strokeColor=#F59D56;fillColor=none;gradientColor=none;dashPattern=8 4;strokeWidth=2;" vertex="1" parent="1">
          <mxGeometry x="320" y="200" width="680" height="200" as="geometry" />
        </mxCell>
        <mxCell id="3cDIzE8Vni4yqQU2_hdb-4" value="" style="rounded=1;arcSize=10;dashed=1;strokeColor=#F59D56;fillColor=none;gradientColor=none;dashPattern=8 4;strokeWidth=2;" vertex="1" parent="1">
          <mxGeometry x="320" y="440" width="680" height="200" as="geometry" />
        </mxCell>
        <mxCell id="3cDIzE8Vni4yqQU2_hdb-5" value="AZ-1" style="text;html=1;align=center;verticalAlign=middle;whiteSpace=wrap;rounded=0;" vertex="1" parent="1">
          <mxGeometry x="332" y="170" width="60" height="30" as="geometry" />
        </mxCell>
        <mxCell id="3cDIzE8Vni4yqQU2_hdb-6" value="AZ-2" style="text;html=1;align=center;verticalAlign=middle;whiteSpace=wrap;rounded=0;" vertex="1" parent="1">
          <mxGeometry x="332" y="410" width="60" height="30" as="geometry" />
        </mxCell>
        <mxCell id="3cDIzE8Vni4yqQU2_hdb-7" value="PublicSubnet1A" style="points=[[0,0],[0.25,0],[0.5,0],[0.75,0],[1,0],[1,0.25],[1,0.5],[1,0.75],[1,1],[0.75,1],[0.5,1],[0.25,1],[0,1],[0,0.75],[0,0.5],[0,0.25]];outlineConnect=0;gradientColor=none;html=1;whiteSpace=wrap;fontSize=12;fontStyle=0;container=1;pointerEvents=0;collapsible=0;recursiveResize=0;shape=mxgraph.aws4.group;grIcon=mxgraph.aws4.group_security_group;grStroke=0;strokeColor=#7AA116;fillColor=#F2F6E8;verticalAlign=top;align=left;spacingLeft=30;fontColor=#248814;dashed=0;" vertex="1" parent="1">
          <mxGeometry x="392" y="240" width="130" height="130" as="geometry" />
        </mxCell>
        <mxCell id="3cDIzE8Vni4yqQU2_hdb-36" value="" style="points=[];aspect=fixed;html=1;align=center;shadow=0;dashed=0;fillColor=#FF6A00;strokeColor=none;shape=mxgraph.alibaba_cloud.bastionhost;" vertex="1" parent="3cDIzE8Vni4yqQU2_hdb-7">
          <mxGeometry x="39.8" y="50" width="37.83" height="29.95" as="geometry" />
        </mxCell>
        <mxCell id="3cDIzE8Vni4yqQU2_hdb-37" value="Security group" style="fillColor=none;strokeColor=#DD3522;verticalAlign=top;fontStyle=0;fontColor=#DD3522;whiteSpace=wrap;html=1;" vertex="1" parent="3cDIzE8Vni4yqQU2_hdb-7">
          <mxGeometry x="25" y="29.970000000000027" width="80" height="70" as="geometry" />
        </mxCell>
        <mxCell id="3cDIzE8Vni4yqQU2_hdb-8" value="PublicSubnet2B" style="points=[[0,0],[0.25,0],[0.5,0],[0.75,0],[1,0],[1,0.25],[1,0.5],[1,0.75],[1,1],[0.75,1],[0.5,1],[0.25,1],[0,1],[0,0.75],[0,0.5],[0,0.25]];outlineConnect=0;gradientColor=none;html=1;whiteSpace=wrap;fontSize=12;fontStyle=0;container=1;pointerEvents=0;collapsible=0;recursiveResize=0;shape=mxgraph.aws4.group;grIcon=mxgraph.aws4.group_security_group;grStroke=0;strokeColor=#7AA116;fillColor=#F2F6E8;verticalAlign=top;align=left;spacingLeft=30;fontColor=#248814;dashed=0;" vertex="1" parent="1">
          <mxGeometry x="392" y="480" width="130" height="130" as="geometry" />
        </mxCell>
        <mxCell id="3cDIzE8Vni4yqQU2_hdb-9" value="AppPrivateSubnet1A" style="points=[[0,0],[0.25,0],[0.5,0],[0.75,0],[1,0],[1,0.25],[1,0.5],[1,0.75],[1,1],[0.75,1],[0.5,1],[0.25,1],[0,1],[0,0.75],[0,0.5],[0,0.25]];outlineConnect=0;gradientColor=none;html=1;whiteSpace=wrap;fontSize=12;fontStyle=0;container=1;pointerEvents=0;collapsible=0;recursiveResize=0;shape=mxgraph.aws4.group;grIcon=mxgraph.aws4.group_security_group;grStroke=0;strokeColor=#00A4A6;fillColor=#E6F6F7;verticalAlign=top;align=left;spacingLeft=30;fontColor=#147EBA;dashed=0;" vertex="1" parent="1">
          <mxGeometry x="570" y="240" width="155" height="130" as="geometry" />
        </mxCell>
        <mxCell id="3cDIzE8Vni4yqQU2_hdb-28" value="" style="sketch=0;points=[[0,0,0],[0.25,0,0],[0.5,0,0],[0.75,0,0],[1,0,0],[0,1,0],[0.25,1,0],[0.5,1,0],[0.75,1,0],[1,1,0],[0,0.25,0],[0,0.5,0],[0,0.75,0],[1,0.25,0],[1,0.5,0],[1,0.75,0]];outlineConnect=0;fontColor=#232F3E;fillColor=#ED7100;strokeColor=#ffffff;dashed=0;verticalLabelPosition=bottom;verticalAlign=top;align=center;html=1;fontSize=12;fontStyle=0;aspect=fixed;shape=mxgraph.aws4.resourceIcon;resIcon=mxgraph.aws4.ec2;" vertex="1" parent="3cDIzE8Vni4yqQU2_hdb-9">
          <mxGeometry x="52.5" y="41" width="50" height="50" as="geometry" />
        </mxCell>
        <mxCell id="3cDIzE8Vni4yqQU2_hdb-38" value="Security group" style="fillColor=none;strokeColor=#DD3522;verticalAlign=top;fontStyle=0;fontColor=#DD3522;whiteSpace=wrap;html=1;" vertex="1" parent="3cDIzE8Vni4yqQU2_hdb-9">
          <mxGeometry x="37.5" y="21" width="80" height="70" as="geometry" />
        </mxCell>
        <mxCell id="3cDIzE8Vni4yqQU2_hdb-40" value="" style="endArrow=classic;html=1;rounded=0;" edge="1" parent="3cDIzE8Vni4yqQU2_hdb-9" target="3cDIzE8Vni4yqQU2_hdb-10">
          <mxGeometry width="50" height="50" relative="1" as="geometry">
            <mxPoint x="70" y="130" as="sourcePoint" />
            <mxPoint x="210" y="53" as="targetPoint" />
          </mxGeometry>
        </mxCell>
        <mxCell id="3cDIzE8Vni4yqQU2_hdb-10" value="AppPrivateSubnet2B" style="points=[[0,0],[0.25,0],[0.5,0],[0.75,0],[1,0],[1,0.25],[1,0.5],[1,0.75],[1,1],[0.75,1],[0.5,1],[0.25,1],[0,1],[0,0.75],[0,0.5],[0,0.25]];outlineConnect=0;gradientColor=none;html=1;whiteSpace=wrap;fontSize=12;fontStyle=0;container=1;pointerEvents=0;collapsible=0;recursiveResize=0;shape=mxgraph.aws4.group;grIcon=mxgraph.aws4.group_security_group;grStroke=0;strokeColor=#00A4A6;fillColor=#E6F6F7;verticalAlign=top;align=left;spacingLeft=30;fontColor=#147EBA;dashed=0;" vertex="1" parent="1">
          <mxGeometry x="580" y="480" width="150" height="130" as="geometry" />
        </mxCell>
        <mxCell id="3cDIzE8Vni4yqQU2_hdb-29" value="" style="sketch=0;points=[[0,0,0],[0.25,0,0],[0.5,0,0],[0.75,0,0],[1,0,0],[0,1,0],[0.25,1,0],[0.5,1,0],[0.75,1,0],[1,1,0],[0,0.25,0],[0,0.5,0],[0,0.75,0],[1,0.25,0],[1,0.5,0],[1,0.75,0]];outlineConnect=0;fontColor=#232F3E;fillColor=#ED7100;strokeColor=#ffffff;dashed=0;verticalLabelPosition=bottom;verticalAlign=top;align=center;html=1;fontSize=12;fontStyle=0;aspect=fixed;shape=mxgraph.aws4.resourceIcon;resIcon=mxgraph.aws4.ec2;" vertex="1" parent="3cDIzE8Vni4yqQU2_hdb-10">
          <mxGeometry x="50" y="40" width="50" height="50" as="geometry" />
        </mxCell>
        <mxCell id="3cDIzE8Vni4yqQU2_hdb-39" value="Security group" style="fillColor=none;strokeColor=#DD3522;verticalAlign=top;fontStyle=0;fontColor=#DD3522;whiteSpace=wrap;html=1;" vertex="1" parent="3cDIzE8Vni4yqQU2_hdb-10">
          <mxGeometry x="35" y="20" width="80" height="70" as="geometry" />
        </mxCell>
        <mxCell id="3cDIzE8Vni4yqQU2_hdb-11" value="DataPrivateSubnet2B" style="points=[[0,0],[0.25,0],[0.5,0],[0.75,0],[1,0],[1,0.25],[1,0.5],[1,0.75],[1,1],[0.75,1],[0.5,1],[0.25,1],[0,1],[0,0.75],[0,0.5],[0,0.25]];outlineConnect=0;gradientColor=none;html=1;whiteSpace=wrap;fontSize=12;fontStyle=0;container=1;pointerEvents=0;collapsible=0;recursiveResize=0;shape=mxgraph.aws4.group;grIcon=mxgraph.aws4.group_security_group;grStroke=0;strokeColor=#00A4A6;fillColor=#E6F6F7;verticalAlign=top;align=left;spacingLeft=30;fontColor=#147EBA;dashed=0;" vertex="1" parent="1">
          <mxGeometry x="790" y="480" width="150" height="130" as="geometry" />
        </mxCell>
        <mxCell id="3cDIzE8Vni4yqQU2_hdb-12" value="DataPrivateSubnet1A" style="points=[[0,0],[0.25,0],[0.5,0],[0.75,0],[1,0],[1,0.25],[1,0.5],[1,0.75],[1,1],[0.75,1],[0.5,1],[0.25,1],[0,1],[0,0.75],[0,0.5],[0,0.25]];outlineConnect=0;gradientColor=none;html=1;whiteSpace=wrap;fontSize=12;fontStyle=0;container=1;pointerEvents=0;collapsible=0;recursiveResize=0;shape=mxgraph.aws4.group;grIcon=mxgraph.aws4.group_security_group;grStroke=0;strokeColor=#00A4A6;fillColor=#E6F6F7;verticalAlign=top;align=left;spacingLeft=30;fontColor=#147EBA;dashed=0;" vertex="1" parent="1">
          <mxGeometry x="790" y="240" width="160" height="130" as="geometry" />
        </mxCell>
        <mxCell id="3cDIzE8Vni4yqQU2_hdb-16" value="" style="shape=link;html=1;rounded=0;" edge="1" parent="1">
          <mxGeometry width="100" relative="1" as="geometry">
            <mxPoint x="730" y="304.5" as="sourcePoint" />
            <mxPoint x="790" y="304.5" as="targetPoint" />
          </mxGeometry>
        </mxCell>
        <mxCell id="3cDIzE8Vni4yqQU2_hdb-17" value="" style="shape=link;html=1;rounded=0;" edge="1" parent="1">
          <mxGeometry width="100" relative="1" as="geometry">
            <mxPoint x="730" y="544.5" as="sourcePoint" />
            <mxPoint x="790" y="544.5" as="targetPoint" />
          </mxGeometry>
        </mxCell>
        <mxCell id="3cDIzE8Vni4yqQU2_hdb-18" value="" style="sketch=0;outlineConnect=0;fontColor=#232F3E;gradientColor=none;fillColor=#8C4FFF;strokeColor=none;dashed=0;verticalLabelPosition=bottom;verticalAlign=top;align=center;html=1;fontSize=12;fontStyle=0;aspect=fixed;pointerEvents=1;shape=mxgraph.aws4.internet_gateway;" vertex="1" parent="1">
          <mxGeometry x="230" y="391.5" width="67" height="67" as="geometry" />
        </mxCell>
        <mxCell id="3cDIzE8Vni4yqQU2_hdb-19" value="Internet Gateway" style="text;html=1;align=center;verticalAlign=middle;whiteSpace=wrap;rounded=0;" vertex="1" parent="1">
          <mxGeometry x="180" y="370" width="60" height="30" as="geometry" />
        </mxCell>
        <mxCell id="3cDIzE8Vni4yqQU2_hdb-20" value="" style="shape=actor;whiteSpace=wrap;html=1;" vertex="1" parent="1">
          <mxGeometry x="80" y="398.5" width="40" height="60" as="geometry" />
        </mxCell>
        <mxCell id="3cDIzE8Vni4yqQU2_hdb-21" value="Local IP" style="text;html=1;align=center;verticalAlign=middle;whiteSpace=wrap;rounded=0;" vertex="1" parent="1">
          <mxGeometry x="70" y="470" width="60" height="30" as="geometry" />
        </mxCell>
        <mxCell id="3cDIzE8Vni4yqQU2_hdb-26" value="" style="endArrow=classic;html=1;rounded=0;" edge="1" parent="1" target="3cDIzE8Vni4yqQU2_hdb-18">
          <mxGeometry width="50" height="50" relative="1" as="geometry">
            <mxPoint x="130" y="430" as="sourcePoint" />
            <mxPoint x="190" y="403.5" as="targetPoint" />
          </mxGeometry>
        </mxCell>
        <mxCell id="3cDIzE8Vni4yqQU2_hdb-27" value="" style="endArrow=classic;html=1;rounded=0;entryX=0.147;entryY=0.55;entryDx=0;entryDy=0;entryPerimeter=0;" edge="1" parent="1" target="3cDIzE8Vni4yqQU2_hdb-3">
          <mxGeometry width="50" height="50" relative="1" as="geometry">
            <mxPoint x="280" y="387" as="sourcePoint" />
            <mxPoint x="380" y="383" as="targetPoint" />
          </mxGeometry>
        </mxCell>
        <mxCell id="3cDIzE8Vni4yqQU2_hdb-30" value="" style="outlineConnect=0;dashed=0;verticalLabelPosition=bottom;verticalAlign=top;align=center;html=1;shape=mxgraph.aws3.route_table;fillColor=#F58536;gradientColor=none;" vertex="1" parent="1">
          <mxGeometry x="490" y="350" width="40" height="20" as="geometry" />
        </mxCell>
        <mxCell id="3cDIzE8Vni4yqQU2_hdb-31" value="Route Table" style="text;html=1;align=center;verticalAlign=middle;whiteSpace=wrap;rounded=0;" vertex="1" parent="1">
          <mxGeometry x="481" y="370" width="70" height="21.5" as="geometry" />
        </mxCell>
        <mxCell id="3cDIzE8Vni4yqQU2_hdb-41" value="ping from 1A to 2B" style="text;html=1;align=center;verticalAlign=middle;whiteSpace=wrap;rounded=0;" vertex="1" parent="1">
          <mxGeometry x="650" y="403" width="60" height="30" as="geometry" />
        </mxCell>
        <mxCell id="3cDIzE8Vni4yqQU2_hdb-42" value="AWS Cloud" style="points=[[0,0],[0.25,0],[0.5,0],[0.75,0],[1,0],[1,0.25],[1,0.5],[1,0.75],[1,1],[0.75,1],[0.5,1],[0.25,1],[0,1],[0,0.75],[0,0.5],[0,0.25]];outlineConnect=0;gradientColor=none;html=1;whiteSpace=wrap;fontSize=12;fontStyle=0;container=1;pointerEvents=0;collapsible=0;recursiveResize=0;shape=mxgraph.aws4.group;grIcon=mxgraph.aws4.group_aws_cloud_alt;strokeColor=#232F3E;fillColor=none;verticalAlign=top;align=left;spacingLeft=30;fontColor=#232F3E;dashed=0;" vertex="1" parent="1">
          <mxGeometry x="220" y="110" width="860" height="600" as="geometry" />
        </mxCell>
      </root>
    </mxGraphModel>
  </diagram>
</mxfile>
